<?xml version="1.0" standalone="no"?>
<svg version="1.0" xmlns="http://www.w3.org/2000/svg"
 width="512.000000pt" height="512.000000pt" viewBox="0 0 512.000000 512.000000"
 preserveAspectRatio="xMidYMid meet">

<g transform="translate(0.000000,512.000000) scale(0.100000,-0.100000)"
fill="#cb3234" stroke="none">
<path d="M578 4944 c-88 -21 -171 -68 -247 -139 -144 -136 -202 -331 -152
-515 9 -36 178 -440 374 -897 l358 -833 -358 -832 c-196 -458 -365 -862 -374
-898 -50 -184 8 -379 152 -515 142 -134 308 -180 492 -139 107 25 3878 1911
3954 1978 66 59 125 148 154 233 33 96 33 250 0 346 -29 85 -88 174 -154 233
-76 67 -3847 1953 -3954 1978 -86 19 -167 19 -245 0z"/>
</g>
</svg>
