<?xml version="1.0" standalone="no"?>
<!DOCTYPE svg PUBLIC "-//W3C//DTD SVG 20010904//EN"
 "http://www.w3.org/TR/2001/REC-SVG-20010904/DTD/svg10.dtd">
<svg version="1.0" xmlns="http://www.w3.org/2000/svg"
 width="360.000000pt" height="360.000000pt" viewBox="0 0 360.000000 360.000000"
 preserveAspectRatio="xMidYMid meet">

<g transform="translate(0.000000,360.000000) scale(0.100000,-0.100000)"
fill="#000000" stroke="none">
<path d="M73 3335 c-25 -18 -52 -82 -63 -152 -17 -101 21 -228 91 -308 28 -32
422 -384 666 -595 62 -54 63 -55 63 -106 0 -78 44 -234 92 -326 44 -86 140
-214 179 -242 23 -16 22 -16 -29 -16 l-52 0 0 41 c0 66 -12 79 -74 79 -61 0
-66 -6 -66 -76 l0 -44 -330 0 -330 0 0 -195 0 -195 301 -2 302 -3 -78 -69 -77
-70 -35 42 c-19 23 -40 42 -46 42 -7 0 -32 -18 -57 -39 l-44 -39 39 -47 39
-48 -31 -26 c-223 -190 -453 -398 -451 -408 4 -17 237 -283 248 -283 5 0 118
95 251 212 l243 211 36 -41 c19 -23 39 -42 44 -42 10 0 96 71 96 79 0 4 -16
27 -36 50 -36 42 -36 43 -18 60 10 10 71 63 136 119 l116 102 30 -53 c59 -104
174 -190 299 -222 74 -19 249 -19 331 0 151 36 260 128 312 262 l16 43 151
-133 151 -132 -34 -42 c-19 -23 -34 -46 -34 -51 0 -12 76 -82 89 -82 5 0 26
19 45 42 l36 42 22 -20 c77 -68 287 -253 367 -323 51 -45 99 -81 105 -79 18 5
246 264 246 281 0 11 -190 184 -432 394 l-49 42 36 39 c19 22 35 44 35 49 0
13 -73 83 -87 83 -6 0 -27 -18 -47 -41 l-37 -40 -74 63 c-40 35 -74 66 -74 70
-1 4 162 8 362 10 l362 3 57 27 c77 36 151 107 188 181 39 78 40 128 4 156
-26 21 -37 21 -474 21 l-448 0 -46 84 c-41 77 -45 89 -39 133 5 43 2 53 -22
81 -15 18 -33 32 -40 32 -11 0 -10 11 5 54 10 30 24 89 31 131 l13 76 336 292
c437 381 451 394 491 475 31 63 34 74 34 167 0 113 -22 179 -69 210 -39 26
-67 13 -164 -73 -337 -300 -715 -623 -721 -616 -4 5 -29 41 -54 80 -58 89
-183 209 -273 262 -394 234 -902 123 -1156 -253 -23 -33 -42 -62 -44 -63 -1
-2 -179 152 -396 342 -410 361 -416 365 -465 331z m76 -39 c16 -19 -10 -38
-49 -34 -30 3 -30 4 -15 26 18 25 47 29 64 8z m63 -63 c13 -16 12 -22 -8 -58
-13 -22 -24 -35 -24 -28 0 6 -11 25 -25 42 l-26 30 28 14 c37 20 38 20 55 0z
m-99 -62 c46 -51 56 -99 32 -151 -10 -22 -25 -46 -35 -55 -15 -13 -18 -12 -34
22 -36 75 -43 223 -11 223 7 0 29 -18 48 -39z m95 -211 l21 -35 -44 3 -44 4
22 33 c12 19 22 33 23 32 0 -1 10 -18 22 -37z m43 -86 c71 -21 111 -64 133
-144 10 -34 16 -63 14 -65 -3 -3 -209 173 -252 216 -16 15 45 11 105 -7z m261
-199 l45 -40 -55 2 -56 1 -11 55 -11 55 21 -16 c12 -9 42 -35 67 -57z m95
-100 c21 -9 46 -23 57 -33 26 -23 66 -111 66 -145 0 -28 -1 -28 -72 34 -40 34
-98 84 -127 111 l-55 48 47 0 c26 0 64 -7 84 -15z m176 -161 c-3 -7 2 -17 11
-20 9 -3 16 -10 16 -16 0 -5 -5 -6 -12 -2 -7 5 -8 3 -3 -5 5 -10 10 -10 19 -1
8 8 6 15 -8 26 -11 7 -16 17 -12 21 3 4 15 -2 26 -13 27 -27 17 -60 -18 -58
-15 1 -26 7 -24 13 1 6 -2 29 -7 52 -7 33 -7 38 4 29 8 -6 11 -18 8 -26z m47
-125 c0 -6 -4 -7 -10 -4 -5 3 -10 11 -10 16 0 6 5 7 10 4 6 -3 10 -11 10 -16z
m210 -232 c0 -43 31 -114 67 -156 67 -79 192 -118 290 -92 101 27 194 129 209
227 l6 44 213 0 c237 0 225 4 225 -71 0 -38 0 -38 -32 -33 -79 13 -175 33
-193 40 l-20 7 20 -22 c32 -37 115 -80 178 -92 57 -12 57 -12 57 -48 0 -69 13
-170 21 -166 8 5 23 75 34 156 6 46 7 47 49 53 55 9 154 56 185 89 l23 26 -51
-14 c-28 -7 -74 -16 -103 -20 -29 -3 -61 -9 -70 -11 -16 -5 -18 2 -18 50 l0
56 184 0 184 0 -9 -37 c-19 -71 -42 -123 -54 -123 -7 0 -24 -12 -39 -26 -21
-21 -26 -36 -26 -73 0 -42 -6 -54 -54 -112 -96 -117 -263 -223 -416 -266 -91
-25 -329 -25 -420 0 -274 76 -506 302 -579 565 l-20 72 80 0 c76 0 79 -1 79
-23z m1464 -188 c45 -36 23 -99 -35 -99 -79 0 -77 109 2 119 4 1 18 -8 33 -20z
m69 -219 c27 -50 45 -95 42 -100 -4 -6 -24 -19 -46 -30 -46 -24 -41 -32 -67
103 -18 89 -18 98 -3 107 9 5 18 9 21 10 3 0 27 -41 53 -90z m-123 23 c7 -32
18 -86 25 -120 7 -35 9 -63 5 -63 -5 0 -15 -3 -23 -6 -12 -4 -16 13 -21 93 -4
54 -9 110 -12 126 -3 15 -1 27 4 27 6 0 16 -26 22 -57z m-56 -103 l8 -90 -31
0 -31 0 6 98 c3 53 11 108 17 121 l12 23 6 -31 c4 -17 10 -71 13 -121z m-1424
-175 l0 -275 -25 0 -25 0 0 275 0 275 25 0 25 0 0 -275z m1340 220 c0 -20 -5
-25 -26 -25 l-26 0 23 25 c30 30 29 30 29 0z m-1950 -89 c0 -16 -7 -27 -20
-31 -61 -19 -81 -119 -34 -174 14 -17 32 -31 40 -31 8 0 14 -10 14 -25 0 -23
-3 -25 -49 -25 l-50 0 0 155 -1 155 50 0 c46 0 50 -2 50 -24z m520 -18 l0 -42
-40 39 -40 39 -63 -62 -62 -62 -60 60 -61 60 -74 -75 -75 -75 73 -72 72 -73
63 63 62 62 62 -62 63 -62 40 39 40 39 0 -42 0 -42 -240 0 -240 0 0 33 c0 28
-7 38 -37 58 -59 38 -58 100 2 125 32 13 35 18 35 54 l0 40 240 0 240 0 0 -42z
m1419 -2 l-3 -45 -25 19 c-14 10 -37 30 -50 44 l-24 26 52 0 52 0 -2 -44z
m1259 12 c9 -73 -94 -204 -195 -251 -46 -21 -61 -22 -434 -25 l-385 -3 -45 40
-44 40 390 1 c356 0 394 2 430 19 61 27 120 98 135 160 l12 52 67 -3 c63 -3
66 -4 69 -30z m-2244 -54 l96 -45 0 -76 0 -75 -27 7 c-47 11 -157 57 -172 70
-10 10 -12 30 -6 89 4 42 8 76 10 76 1 0 46 -21 99 -46z m841 -21 c4 -32 7
-64 8 -72 2 -13 -121 -83 -170 -96 -22 -6 -23 -4 -23 69 l0 75 83 40 c45 21
85 40 89 40 4 1 10 -25 13 -56z m-1557 -6 l42 -43 -44 -43 -43 -43 -46 44 -46
43 41 43 c23 23 45 42 48 42 3 0 25 -19 48 -43z m244 6 c21 -20 38 -42 38 -48
0 -6 -18 -28 -40 -50 -39 -38 -40 -38 -61 -19 -12 10 -30 32 -41 47 l-20 29
38 39 c21 21 40 39 43 39 3 0 22 -17 43 -37z m688 -52 c25 -6 66 -11 93 -11
l47 0 0 -76 0 -76 -67 7 c-38 4 -86 10 -108 14 l-40 6 -3 79 c-3 71 -1 77 15
72 10 -3 38 -10 63 -15z m398 -58 l-3 -77 -35 -7 c-19 -4 -68 -11 -107 -14
l-73 -7 0 76 0 76 48 1 c26 0 72 7 102 14 30 7 59 13 63 14 4 0 7 -34 5 -76z
m238 -148 c-4 -12 -131 -77 -173 -90 -22 -6 -23 -4 -23 63 l0 69 43 13 c23 7
67 25 97 40 l55 28 3 -55 c2 -31 1 -61 -2 -68z m-849 71 l92 -31 1 -64 0 -63
-27 7 c-15 3 -60 22 -100 40 -79 36 -93 55 -93 122 0 30 3 34 18 28 9 -5 58
-22 109 -39z m280 -61 l73 -7 0 -69 c0 -49 -4 -69 -12 -69 -18 0 -147 19 -180
26 -27 5 -28 7 -28 74 l0 68 37 -8 c20 -5 69 -12 110 -15z m326 -116 c-8 -8
-146 -29 -189 -29 -23 0 -24 3 -24 69 l0 68 79 7 c43 4 92 11 108 15 l28 8 3
-65 c2 -36 -1 -69 -5 -73z m317 76 l24 -25 -27 2 c-21 2 -27 8 -27 25 0 29 1
29 30 -2z m-972 -49 c238 -120 596 -125 826 -12 l68 33 -6 -38 c-12 -75 -47
-149 -96 -202 -94 -103 -209 -142 -400 -134 -84 3 -129 9 -168 25 -85 33 -152
82 -197 144 -49 66 -103 208 -80 208 3 0 27 -11 53 -24z m-500 -226 c167 -190
179 -206 164 -223 -9 -10 -19 -16 -22 -15 -4 2 -88 96 -188 209 -167 191 -179
208 -164 223 9 9 20 15 24 14 4 -2 88 -95 186 -208z m1562 187 c48 -31 72 -77
68 -127 l-3 -41 -97 86 c-54 48 -98 91 -98 96 0 19 96 9 130 -14z m527 -26
c-17 -22 -305 -350 -332 -379 -21 -22 -21 -22 -39 -3 -17 18 -11 25 165 225
174 198 182 206 200 190 16 -14 17 -20 6 -33z m-349 -126 c-2 -1 -16 -5 -33
-8 -28 -5 -30 -4 -31 28 l0 33 33 -25 c18 -14 32 -27 31 -28z m442 -94 c0 -4
-29 -14 -65 -23 l-66 -15 6 46 c13 100 9 98 70 45 30 -25 55 -50 55 -53z
m-165 11 l-7 -59 -59 -17 c-32 -9 -61 -16 -64 -16 -4 0 25 35 62 78 37 43 70
77 72 76 2 -2 0 -29 -4 -62z m-231 32 c13 -5 11 -11 -11 -40 l-26 -35 -34 32
c-24 24 -29 35 -20 41 14 9 69 10 91 2z m376 -199 c-96 -109 -118 -131 -125
-123 -7 7 198 237 207 232 5 -3 -32 -52 -82 -109z m-57 27 c-37 -44 -69 -78
-71 -77 -1 1 1 29 4 63 l7 61 56 14 c31 8 60 15 64 16 5 1 -22 -34 -60 -77z
m-108 -29 c-4 -38 -9 -70 -11 -72 -4 -4 -114 91 -114 99 0 4 28 14 63 22 34 9
63 16 65 17 2 0 0 -29 -3 -66z m355 15 c34 -32 47 -50 39 -53 -38 -14 -113
-34 -116 -31 -7 7 10 137 17 134 4 -2 31 -24 60 -50z m-119 -46 c-4 -29 -10
-54 -12 -55 -2 -2 -28 -10 -57 -19 l-52 -16 17 22 c30 37 108 124 110 122 1
-1 -1 -26 -6 -54z m275 -93 c5 -9 -46 -74 -152 -193 l-44 -48 -34 29 -33 30
101 115 101 116 27 -20 c15 -10 30 -23 34 -29z m-2918 -216 l-25 -24 -103 117
-104 117 28 22 28 23 101 -115 100 -115 -25 -25z m2740 196 c-29 -34 -61 -71
-71 -82 -17 -21 -18 -21 -13 -2 3 11 8 40 11 65 6 45 8 46 58 62 29 8 56 16
60 17 5 0 -15 -26 -45 -60z m-120 -46 c-5 -32 -10 -61 -11 -66 -1 -4 -26 14
-56 40 l-53 46 53 18 c79 25 77 26 67 -38z"/>
<path d="M170 3219 c0 -5 -6 -7 -12 -3 -9 5 -8 0 2 -15 16 -23 37 -26 32 -4
-2 7 1 12 7 11 5 -2 11 1 13 6 1 5 -7 11 -19 12 -13 2 -23 -1 -23 -7z m16 -19
c0 -12 -4 -16 -9 -11 -5 5 -6 14 -3 20 10 15 12 14 12 -9z"/>
<path d="M180 2961 c0 -5 5 -13 10 -16 6 -3 10 -2 10 4 0 5 -4 13 -10 16 -5 3
-10 2 -10 -4z"/>
<path d="M463 2676 c7 -14 20 -23 34 -23 12 0 20 4 17 9 -3 5 -13 7 -21 4 -8
-3 -11 -2 -8 4 3 5 -3 14 -14 19 -17 10 -18 9 -8 -13z"/>
<path d="M1634 1730 c-32 -12 -54 -49 -54 -88 0 -77 78 -124 145 -87 115 61
30 224 -91 175z"/>
</g>
</svg>
